<svg preserveAspectRatio="none" width="100%" height="100%" overflow="visible" style="display: block;" viewBox="0 0 40 40" fill="none" xmlns="http://www.w3.org/2000/svg">
<g id="Frame 2087328420">
<path d="M0 20C0 8.95431 8.95431 0 20 0V0C31.0457 0 40 8.95431 40 20V20C40 31.0457 31.0457 40 20 40V40C8.95431 40 0 31.0457 0 20V20Z" fill="var(--fill-0, #FFF9E6)"/>
<path id="Vector" d="M20 24.0052C20.3069 24.0052 20.5644 23.9012 20.7724 23.6932C20.9804 23.4852 21.0841 23.2281 21.0833 22.9219C21.0826 22.6157 20.9786 22.3585 20.7713 22.1505C20.5641 21.9425 20.3069 21.8385 20 21.8385C19.6931 21.8385 19.4359 21.9425 19.2287 22.1505C19.0214 22.3585 18.9174 22.6157 18.9167 22.9219C18.9159 23.2281 19.0199 23.4856 19.2287 23.6943C19.4374 23.903 19.6945 24.0067 20 24.0052ZM20 19.6719C20.3069 19.6719 20.5644 19.5679 20.7724 19.3599C20.9804 19.1519 21.0841 18.8948 21.0833 18.5885V14.2552C21.0833 13.9483 20.9793 13.6912 20.7713 13.4839C20.5633 13.2766 20.3062 13.1726 20 13.1719C19.6938 13.1712 19.4367 13.2752 19.2287 13.4839C19.0207 13.6926 18.9167 13.9497 18.9167 14.2552V18.5885C18.9167 18.8955 19.0207 19.153 19.2287 19.361C19.4367 19.569 19.6938 19.6726 20 19.6719ZM13.5 27.2552L11.0083 29.7469C10.6653 30.0899 10.2724 30.1668 9.82967 29.9776C9.38695 29.7884 9.16595 29.4497 9.16667 28.9615V12.0885C9.16667 11.4927 9.379 10.9828 9.80367 10.5589C10.2283 10.1349 10.7382 9.9226 11.3333 9.92188H28.6667C29.2625 9.92188 29.7727 10.1342 30.1974 10.5589C30.6221 10.9835 30.8341 11.4934 30.8333 12.0885V25.0885C30.8333 25.6844 30.6214 26.1946 30.1974 26.6193C29.7735 27.044 29.2632 27.2559 28.6667 27.2552H13.5ZM12.5792 25.0885H28.6667V12.0885H11.3333V26.3073L12.5792 25.0885Z" fill="var(--fill-0, #FFBF00)"/>
</g>
</svg>
