<svg preserveAspectRatio="none" width="100%" height="100%" overflow="visible" style="display: block;" viewBox="0 0 40 40" fill="none" xmlns="http://www.w3.org/2000/svg">
<g id="mdi:feedback-outline">
<path d="M0 20C0 8.95431 8.95431 0 20 0V0C31.0457 0 40 8.95431 40 20V20C40 31.0457 31.0457 40 20 40V40C8.95431 40 0 31.0457 0 20V20Z" fill="var(--fill-0, #FFF9E6)"/>
<path id="Vector" d="M12.691 13.125C12.691 12.4336 12.1324 11.875 11.441 11.875C10.7496 11.875 10.191 12.4336 10.191 13.125V26.25C10.191 27.9766 11.5894 29.375 13.316 29.375H28.941C29.6324 29.375 30.191 28.8164 30.191 28.125C30.191 27.4336 29.6324 26.875 28.941 26.875H13.316C12.9722 26.875 12.691 26.5937 12.691 26.25V13.125ZM28.5738 16.5078C29.0621 16.0195 29.0621 15.2266 28.5738 14.7383C28.0855 14.25 27.2925 14.25 26.8043 14.7383L22.691 18.8555L20.4488 16.6133C19.9605 16.125 19.1675 16.125 18.6793 16.6133L14.3043 20.9883C13.816 21.4766 13.816 22.2695 14.3043 22.7578C14.7925 23.2461 15.5855 23.2461 16.0738 22.7578L19.566 19.2695L21.8082 21.5117C22.2964 22 23.0894 22 23.5777 21.5117L28.5777 16.5117L28.5738 16.5078Z" fill="var(--fill-0, #FFBF00)"/>
</g>
</svg>
