<svg width="48" height="48" viewBox="0 0 48 48" fill="none" xmlns="http://www.w3.org/2000/svg">
<path d="M0 24C0 10.7452 10.7452 0 24 0C37.2548 0 48 10.7452 48 24C48 37.2548 37.2548 48 24 48C10.7452 48 0 37.2548 0 24Z" fill="#FFF9E6"/>
<path d="M33.3333 21.332C30.6667 21.332 28.3333 20.9987 24 19.332V28.6654L33.3333 29.9987V36.6654" stroke="#FFBF00" stroke-width="2.5" stroke-linecap="round" stroke-linejoin="round"/>
<path d="M18 22.6641V31.8341C18 32.3154 18.3427 32.7283 18.8157 32.817L28.6667 34.6641" stroke="#FFBF00" stroke-width="2.5" stroke-linecap="round" stroke-linejoin="round"/>
<path d="M24.0007 15.9974C25.4734 15.9974 26.6673 14.8035 26.6673 13.3307C26.6673 11.858 25.4734 10.6641 24.0007 10.6641C22.5279 10.6641 21.334 11.858 21.334 13.3307C21.334 14.8035 22.5279 15.9974 24.0007 15.9974Z" stroke="#FFBF00" stroke-width="2.5"/>
</svg>
