<svg width="48" height="48" viewBox="0 0 48 48" fill="none" xmlns="http://www.w3.org/2000/svg">
<path d="M0 24C0 10.7452 10.7452 0 24 0C37.2548 0 48 10.7452 48 24C48 37.2548 37.2548 48 24 48C10.7452 48 0 37.2548 0 24Z" fill="#FFF9E6"/>
<path d="M21.5 32.75H15.25C13.8693 32.75 12.75 31.6307 12.75 30.25V17.75C12.75 16.3693 13.8693 15.25 15.25 15.25H32.75C34.1307 15.25 35.25 16.3693 35.25 17.75V21.8125M24.9375 26.5V31.5C24.9375 32.1904 25.4971 32.75 26.1875 32.75H33.6875C34.3779 32.75 34.9375 32.1904 34.9375 31.5V26.5C34.9375 25.8096 34.3779 25.25 33.6875 25.25H26.1875C25.4971 25.25 24.9375 25.8096 24.9375 26.5Z" stroke="#FFBF00" stroke-width="2.5" stroke-linecap="round"/>
</svg>
