<svg viewBox="0 0 48 48" fill="none" xmlns="http://www.w3.org/2000/svg">
  <path d="M0 24C0 10.7452 10.7452 0 24 0C37.2548 0 48 10.7452 48 24C48 37.2548 37.2548 48 24 48C10.7452 48 0 37.2548 0 24Z" fill="#FFF9E6"/>
  <path d="M15.2305 15.75C15.2305 14.9203 14.5602 14.25 13.7305 14.25C12.9008 14.25 12.2305 14.9203 12.2305 15.75V31.5C12.2305 33.5719 13.9086 35.25 15.9805 35.25H34.7305C35.5602 35.25 36.2305 34.5797 36.2305 33.75C36.2305 32.9203 35.5602 32.25 34.7305 32.25H15.9805C15.568 32.25 15.2305 31.9125 15.2305 31.5V15.75ZM34.2898 19.8094C34.8758 19.2234 34.8758 18.2719 34.2898 17.6859C33.7039 17.1 32.7523 17.1 32.1664 17.6859L27.2305 22.6266L24.5398 19.9359C23.9539 19.35 23.0023 19.35 22.4164 19.9359L17.1664 25.1859C16.5805 25.7719 16.5805 26.7234 17.1664 27.3094C17.7523 27.8953 18.7039 27.8953 19.2898 27.3094L23.4805 23.1234L26.1711 25.8141C26.757 26.4 27.7086 26.4 28.2945 25.8141L34.2945 19.8141L34.2898 19.8094Z" fill="#FFBF00"/>
</svg>
