<svg viewBox="0 0 48 48" fill="none" xmlns="http://www.w3.org/2000/svg">
  <path d="M0 24C0 10.7452 10.7452 0 24 0C37.2548 0 48 10.7452 48 24C48 37.2548 37.2548 48 24 48C10.7452 48 0 37.2548 0 24Z" fill="#FFF9E6"/>
  <path d="M24 28.7687C24.3683 28.7687 24.6773 28.6448 24.9269 28.3972C25.1765 28.1495 25.3009 27.8434 25.3 27.4788C25.2991 27.1142 25.1743 26.808 24.9256 26.5604C24.6769 26.3127 24.3683 26.1889 24 26.1889C23.6317 26.1889 23.3231 26.3127 23.0744 26.5604C22.8257 26.808 22.7009 27.1142 22.7 27.4788C22.6991 27.8434 22.8239 28.1499 23.0744 28.3985C23.3249 28.647 23.6334 28.7704 24 28.7687ZM24 23.6091C24.3683 23.6091 24.6773 23.4852 24.9269 23.2376C25.1765 22.9899 25.3009 22.6838 25.3 22.3192V17.1596C25.3 16.7941 25.1752 16.488 24.9256 16.2412C24.676 15.9944 24.3675 15.8706 24 15.8697C23.6325 15.8688 23.324 15.9927 23.0744 16.2412C22.8248 16.4897 22.7 16.7958 22.7 17.1596V22.3192C22.7 22.6846 22.8248 22.9912 23.0744 23.2389C23.324 23.4865 23.6325 23.6099 24 23.6091ZM16.2 32.6383L13.21 35.6051C12.7983 36.0136 12.3269 36.1052 11.7956 35.8799C11.2643 35.6546 10.9991 35.2512 11 34.6699V14.5798C11 13.8704 11.2548 13.2632 11.7644 12.7585C12.274 12.2537 12.8859 12.0009 13.6 12H34.4C35.115 12 35.7273 12.2528 36.2369 12.7585C36.7465 13.2641 37.0009 13.8712 37 14.5798V30.0586C37 30.768 36.7456 31.3755 36.2369 31.8812C35.7282 32.3868 35.1159 32.6392 34.4 32.6383H16.2ZM15.095 30.0586H34.4V14.5798H13.6V31.5097L15.095 30.0586Z" fill="#FFBF00"/>
</svg>
