<svg xmlns="http://www.w3.org/2000/svg" width="61" height="15" viewBox="0 0 61 15" fill="none">
  <path d="M50.0635 12.5166H60.5791V14.8789H47.7021V10.0371H50.0635V12.5166ZM60.5801 10.6729H58.2021V0H60.5801V10.6729ZM56.4463 2.71484H56.4453V3.66016H56.4463V6.02246H49.7158V6.25781C49.7158 6.64896 50.0337 6.96656 50.4248 6.9668H56.4463V9.32812H50.4248C48.7294 9.32789 47.3545 7.95329 47.3545 6.25781V6.02246H47.3535V3.66016H54.084V2.71484H47.3535V0.353516H56.4463V2.71484Z" fill="#2C2C2C"/>
  <path d="M30.998 10.5898H24.9668V14.9404H22.6465V10.5898H16.0908V8.26953H30.998V10.5898ZM20.0254 1.60352H27.0596V0H29.2559V4.41309C29.2559 5.95886 27.9775 7.2119 26.4004 7.21191H20.6846C19.1075 7.21191 17.8291 5.95887 17.8291 4.41309V0H20.0254V1.60352ZM20.0254 4.41309C20.0254 4.7698 20.3206 5.05957 20.6846 5.05957H26.4004C26.7643 5.05956 27.0596 4.7698 27.0596 4.41309V3.77246H20.0254V4.41309Z" fill="#2C2C2C"/>
  <path d="M14.0576 15.001H11.7373V6.70508H9.64941V4.21094H11.7373V0.0351562H14.0576V15.001Z" fill="#2C2C2C"/>
  <path d="M8.47559 4.20605C8.47538 7.7316 5.61733 10.5896 2.0918 10.5898H0V8.38867H2.0918C4.40151 8.38842 6.27421 6.51578 6.27441 4.20605V2.55469H0V0.353516H8.47559V4.20605Z" fill="#2C2C2C"/>
  <path d="M41.2139 4.20605C41.2137 7.73176 38.3549 10.5898 34.8291 10.5898H32.7383V8.38867H34.8291C37.139 8.38867 39.0115 6.51594 39.0117 4.20605V2.55469H32.7383V0.353516H41.2139V4.20605Z" fill="#2C2C2C"/>
  <rect x="42.9473" y="15" width="14.9657" height="2.32026" transform="rotate(-90 42.9473 15)" fill="#2C2C2C"/>
</svg>